<svg width="70" height="56" viewBox="0 0 70 56" fill="none" xmlns="http://www.w3.org/2000/svg">
<rect width="70" height="56" fill="#EEEEEE"/>
<rect width="70" height="56" fill="white"/>
<path d="M66.7734 40.8297C67.0578 39.2875 67.0578 37.7125 66.7734 36.1703L69.5953 34.5406C69.9234 34.3547 70.0656 33.9719 69.9562 33.6109C69.2234 31.2484 67.9656 29.1047 66.325 27.3328C66.0734 27.0594 65.6688 26.9937 65.3406 27.1797L62.5187 28.8094C61.3266 27.7922 59.9594 27.0047 58.4828 26.4797V23.2203C58.4828 22.8484 58.2203 22.5203 57.8594 22.4437C55.4203 21.8969 52.9375 21.9187 50.6187 22.4437C50.2578 22.5203 49.9953 22.8484 49.9953 23.2203V26.4797C48.5188 27.0047 47.1516 27.7922 45.9594 28.8094L43.1375 27.1797C42.8203 26.9937 42.4047 27.0594 42.1531 27.3328C40.5125 29.1047 39.2547 31.2484 38.5219 33.6109C38.4125 33.9719 38.5656 34.3547 38.8828 34.5406L41.7047 36.1703C41.4203 37.7125 41.4203 39.2875 41.7047 40.8297L38.8828 42.4594C38.5547 42.6453 38.4125 43.0281 38.5219 43.3891C39.2547 45.7516 40.5125 47.8844 42.1531 49.6672C42.4047 49.9406 42.8094 50.0063 43.1375 49.8203L45.9594 48.1906C47.1516 49.2078 48.5188 49.9953 49.9953 50.5203V53.7797C49.9953 54.1516 50.2578 54.4797 50.6187 54.5562C53.0578 55.1031 55.5406 55.0812 57.8594 54.5562C58.2203 54.4797 58.4828 54.1516 58.4828 53.7797V50.5203C59.9594 49.9953 61.3266 49.2078 62.5187 48.1906L65.3406 49.8203C65.6578 50.0063 66.0734 49.9406 66.325 49.6672C67.9656 47.8953 69.2234 45.7516 69.9562 43.3891C70.0656 43.0281 69.9125 42.6453 69.5953 42.4594L66.7734 40.8297V40.8297ZM54.25 43.8047C51.3188 43.8047 48.9453 41.4203 48.9453 38.5C48.9453 35.5797 51.3297 33.1953 54.25 33.1953C57.1703 33.1953 59.5547 35.5797 59.5547 38.5C59.5547 41.4203 57.1812 43.8047 54.25 43.8047ZM24.5 28C32.2328 28 38.5 21.7328 38.5 14C38.5 6.26719 32.2328 0 24.5 0C16.7672 0 10.5 6.26719 10.5 14C10.5 21.7328 16.7672 28 24.5 28ZM46.5063 52.7734C46.2547 52.6422 46.0031 52.4891 45.7625 52.3469L44.8984 52.85C44.2422 53.2219 43.4984 53.4297 42.7547 53.4297C41.5625 53.4297 40.4141 52.9266 39.5938 52.0516C37.5922 49.8859 36.0609 47.25 35.1969 44.4391C34.5953 42.5031 35.4047 40.4578 37.1547 39.4406L38.0188 38.9375C38.0078 38.6531 38.0078 38.3688 38.0188 38.0844L37.1547 37.5813C35.4047 36.575 34.5953 34.5187 35.1969 32.5828C35.2953 32.2656 35.4375 31.9484 35.5469 31.6313C35.1313 31.5984 34.7266 31.5 34.3 31.5H32.4734C30.0453 32.6156 27.3438 33.25 24.5 33.25C21.6562 33.25 18.9656 32.6156 16.5266 31.5H14.7C6.58437 31.5 0 38.0844 0 46.2V50.75C0 53.6484 2.35156 56 5.25 56H43.75C44.8547 56 45.8828 55.65 46.725 55.0703C46.5938 54.6547 46.5063 54.2281 46.5063 53.7797V52.7734Z" fill="#BAC1C6"/>
</svg>
