<svg width="149" height="116" viewBox="0 0 149 116" fill="none" xmlns="http://www.w3.org/2000/svg">
<rect width="149" height="116" fill="#EEEEEE"/>
<rect width="149" height="116" fill="#EEEEEE"/>
<path d="M52.543 61.9293C50.9363 61.3751 49.5289 60.3589 48.4979 59.0078L45.9007 55.6048C45.6128 55.2276 45.4534 54.768 45.4457 54.2934L45.3292 47.0677C45.3114 45.9634 46.1081 45.0139 47.1986 44.8394C48.3661 44.6526 49.1825 43.5836 49.0555 42.4081L48.8336 40.3555C48.767 39.7396 48.4461 39.1795 47.9484 38.8105L46.3117 37.5971C44.8257 36.4953 43.0247 35.9006 41.1747 35.9006H40.0943C39.6335 35.9006 39.1732 35.8636 38.7181 35.7901L34.9498 35.181C34.7167 36.7568 34.5936 38.3651 34.5936 40C34.5936 53.01 42.2186 64.3779 53.5751 70.5237L54.3766 64.9324C54.5646 63.6212 53.7952 62.3611 52.543 61.9293Z" fill="#50A5DC"/>
<path d="M107.196 50.3665L106.972 50.0904C106.343 49.3132 105.291 49.0185 104.35 49.3557L102.65 49.9646C101.575 50.3497 100.426 50.4824 99.2923 50.353L98.7931 50.2959C96.1472 49.9938 93.8637 48.3025 92.8035 45.8595C92.201 44.4709 92.0355 42.9318 92.3294 41.447L93.3573 36.2526C93.6343 34.8532 94.3069 33.5629 95.2956 32.5347L95.7014 32.1127C97.3954 30.3509 99.8456 29.5321 102.258 29.9213L104.954 30.356C105.014 30.3657 105.073 30.3775 105.132 30.3919L110.327 31.6473C109.448 28.3025 108.054 25.1431 106.225 22.2451L102.959 21.7764C102.912 21.7697 102.865 21.761 102.819 21.7503L99.2448 20.9296C98.1452 20.6771 97.1052 21.5353 97.1442 22.6628C97.1651 23.2636 96.8703 23.8314 96.367 24.1602L94.0527 25.6716C93.5138 26.0236 92.8233 26.0446 92.2639 25.7259L89.0045 23.8695C88.0986 23.3536 87.6403 22.3033 87.8781 21.2885L88.6115 18.1579C88.8551 17.1178 89.7689 16.3724 90.8368 16.3426L93.5984 16.2658C94.8792 16.2301 95.8961 15.1763 95.8857 13.8948L95.8669 11.575C89.4784 7.20654 81.5672 4.62152 73 4.62152C70.6304 4.62152 68.3116 4.82056 66.0606 5.19889C67.426 6.14343 68.5261 7.48574 69.1718 9.11682L69.2623 9.34551C69.5399 10.047 69.7245 10.782 69.811 11.5315L69.8913 12.2269C70.0666 13.7455 69.8351 15.2834 69.2206 16.683L68.3538 18.6572C67.6607 20.2359 66.5106 21.5705 65.0516 22.4891L63.9718 23.1689C63.3638 23.5517 63.0097 24.2328 63.0456 24.9504L63.1914 27.8671C63.252 29.0778 62.2242 30.0602 61.0175 29.9453C60.3565 29.8824 59.7705 29.4936 59.4558 28.9089L58.1296 26.4461C57.8733 25.9702 57.4343 25.6191 56.9136 25.4738L52.2269 24.1659C51.3543 23.9224 50.4237 23.9944 49.599 24.3693L48.483 24.8765C46.8156 25.6344 45.913 27.4622 46.3249 29.2469C46.4872 29.95 46.8437 30.5932 47.3539 31.1034L50.3989 34.1484C50.6105 34.36 50.8112 34.5826 50.9997 34.8151L53.0873 37.39C53.7041 38.1506 54.6322 38.5912 55.6115 38.5882L61.299 38.5708C62.4537 38.5673 63.523 39.1793 64.1049 40.1767C64.5637 40.9632 65.3323 41.52 66.2226 41.7108L68.3536 42.1675C69.2755 42.3651 70.0655 42.9547 70.517 43.7825L71.5463 45.6695C71.803 46.1402 72.1963 46.5222 72.6743 46.7651L77.5112 49.2233C78.5092 49.7304 79.0818 50.8089 78.9429 51.9197C78.8628 52.561 78.5516 53.1509 78.0676 53.5791L76.2301 55.2046C75.9052 55.4921 75.6556 55.8548 75.5033 56.261L75.1029 57.3288C74.8255 58.0687 74.2537 58.6604 73.5238 58.963L71.5669 59.7745C70.5009 60.2164 69.8059 61.2569 69.8059 62.411C69.8059 62.8725 69.6939 63.3273 69.4797 63.7361L63.9015 74.3774C66.8185 75.03 69.8649 75.3785 73 75.3785C88.4069 75.3785 101.692 67.0204 107.811 54.9591L107.719 51.7783C107.704 51.2633 107.52 50.7672 107.196 50.3665Z" fill="#50A5DC"/>
<path d="M69.8057 62.4107C69.8057 61.2567 70.5007 60.2163 71.5667 59.7742L73.5237 58.9627C74.2535 58.6601 74.8253 58.0684 75.1028 57.3284L75.5031 56.2607C75.6555 55.8545 75.905 55.4918 76.23 55.2043L78.0674 53.5788C78.5514 53.1506 78.8626 52.5606 78.9428 51.9194C79.0816 50.8086 78.509 49.73 77.5111 49.2229L72.6741 46.7648C72.196 46.5219 71.8029 46.1399 71.5461 45.6692L70.5168 43.7822C70.0653 42.9544 69.2754 42.3646 68.3535 42.1672L66.2225 41.7104C65.3323 41.5197 64.5635 40.9629 64.1047 40.1764C63.5229 39.179 62.4537 38.567 61.2988 38.5705L55.6113 38.5879C54.632 38.5909 53.7039 38.1503 53.0872 37.3896L50.9995 34.8148C50.811 34.5823 50.6105 34.3597 50.3987 34.148L47.3538 31.1034C46.8437 30.5933 46.487 29.95 46.3248 29.2469C45.913 27.4622 46.8155 25.6344 48.4829 24.8765L49.5989 24.3692C50.4236 23.9944 51.3541 23.9224 52.2268 24.1659L56.9135 25.4738C57.4341 25.6191 57.8731 25.9702 58.1294 26.4461L59.4556 28.9088C59.7704 29.4935 60.3563 29.8824 61.0174 29.9453C62.2241 30.0602 63.2518 29.0778 63.1912 27.8671L63.0454 24.9504C63.0096 24.2328 63.3637 23.5517 63.9716 23.1689L65.0515 22.4891C66.5104 21.5705 67.6606 20.2359 68.3536 18.6572L69.2204 16.683C69.8349 15.2833 70.0665 13.7455 69.8912 12.2269L69.8108 11.5315C69.7243 10.782 69.5399 10.047 69.2621 9.3455L69.1716 9.11681C68.5261 7.48574 67.4258 6.14342 66.0604 5.19888C49.8481 7.92446 37.1909 20.026 34.9498 35.1809L38.7181 35.79C39.1731 35.8634 39.6333 35.9004 40.0943 35.9004H41.1747C43.0247 35.9004 44.8257 36.4951 46.3117 37.597L47.9484 38.8104C48.4461 39.1793 48.767 39.7394 48.8336 40.3554L49.0555 42.408C49.1825 43.5834 48.3662 44.6524 47.1986 44.8392C46.1079 45.0137 45.3114 45.9633 45.3292 47.0676L45.4457 54.2932C45.4534 54.7677 45.6129 55.2273 45.9007 55.6046L48.4978 59.0077C49.5289 60.3587 50.9363 61.3751 52.5429 61.9291C53.7952 62.361 54.5646 63.621 54.3767 64.9323L53.5753 70.5235C56.7535 72.2435 60.2237 73.5538 63.9015 74.3769L69.4797 63.7356C69.6937 63.3269 69.8057 62.8722 69.8057 62.4107Z" fill="#7AC943"/>
<path d="M93.5984 16.2653L90.8368 16.3421C89.7689 16.3718 88.8551 17.1173 88.6115 18.1574L87.8781 21.288C87.6403 22.3028 88.0986 23.3531 89.0045 23.869L92.2639 25.7254C92.8233 26.044 93.5138 26.0229 94.0527 25.6711L96.367 24.1597C96.8703 23.8309 97.1651 23.2631 97.1442 22.6623C97.105 21.5348 98.1452 20.6765 99.2448 20.9291L102.819 21.7498C102.865 21.7605 102.912 21.7692 102.959 21.7759L106.225 22.2446C103.59 18.0709 100.057 14.439 95.8669 11.5743L95.8857 13.8942C95.8961 15.1758 94.8792 16.2298 93.5984 16.2653Z" fill="#7AC943"/>
<path d="M110.327 31.647L105.132 30.3916C105.073 30.3774 105.014 30.3654 104.954 30.3557L102.258 29.921C99.8454 29.5318 97.3952 30.3508 95.7014 32.1124L95.2956 32.5344C94.3069 33.5626 93.6341 34.8529 93.3573 36.2523L92.3294 41.4467C92.0355 42.9315 92.201 44.4706 92.8035 45.8591C93.8637 48.3022 96.1472 49.9935 98.7931 50.2956L99.2923 50.3527C100.426 50.4822 101.575 50.3493 102.65 49.9643L104.35 49.3554C105.291 49.0182 106.343 49.3128 106.972 50.09L107.196 50.3662C107.52 50.7669 107.704 51.2628 107.719 51.778L107.811 54.9587C110.116 50.4151 111.406 45.3468 111.406 40C111.406 37.1222 111.031 34.3256 110.327 31.647Z" fill="#7AC943"/>
<path d="M102.522 54.328C101.836 53.7777 100.833 53.8881 100.282 54.5752C99.554 55.4842 98.7662 56.3704 97.9414 57.2093C97.3241 57.8368 97.3328 58.8459 97.9602 59.463C98.2704 59.7681 98.6741 59.9203 99.0775 59.9203C99.4899 59.9203 99.902 59.7613 100.214 59.4442C101.114 58.5286 101.974 57.561 102.77 56.5681C103.32 55.8813 103.209 54.8784 102.522 54.328Z" fill="black"/>
<path d="M94.0293 60.6454C88.0029 65.2134 80.6998 67.8609 72.91 68.3017C72.0312 68.3514 71.3592 69.1041 71.4089 69.9828C71.4569 70.8309 72.1595 71.4865 72.9986 71.4865C73.0288 71.4865 73.0593 71.4857 73.09 71.4838C81.5147 71.0072 89.4214 68.1375 95.9549 63.1853C96.6563 62.6537 96.7939 61.6542 96.2623 60.9527C95.7305 60.2513 94.7307 60.1135 94.0293 60.6454Z" fill="black"/>
<path d="M111.868 31.2419C111.868 31.2418 111.868 31.2418 111.868 31.2416C110.959 27.7833 109.514 24.4703 107.572 21.3943C104.812 17.0209 101.176 13.2744 96.7664 10.259C89.8477 5.52829 81.6293 3.02789 73 3.02789C70.5863 3.02789 68.1627 3.22965 65.7963 3.62741C59.0896 4.75491 52.7587 7.4851 47.4888 11.5229C39.7425 17.458 34.7296 25.7771 33.3732 34.9477C33.1256 36.6228 33 38.3226 33 40C33 46.5823 34.8951 53.0453 38.4805 58.6902C41.9476 64.149 46.9044 68.7253 52.8153 71.9243C52.8158 71.9246 52.8163 71.925 52.8167 71.9251C56.1705 73.7401 59.7828 75.0881 63.5535 75.9321C66.6367 76.6223 69.815 76.9721 73 76.9721C80.7358 76.9721 88.2419 74.9275 94.7069 71.0593C101.022 67.2807 106.045 61.9624 109.232 55.68C111.732 50.7517 113 45.4762 113 40C113 37.0465 112.619 34.0999 111.868 31.2419ZM102.751 20.0994L99.6011 19.3759C98.5908 19.1439 97.5527 19.3895 96.7531 20.0491C95.9535 20.7089 95.5154 21.6816 95.5514 22.7178C95.553 22.7606 95.5315 22.8019 95.4953 22.8255L93.1812 24.3369C93.1423 24.3622 93.0928 24.3638 93.0524 24.3407L89.7928 22.4843C89.5028 22.3191 89.3533 21.9766 89.4295 21.6515L90.1629 18.5206C90.2414 18.1853 90.5367 17.9447 90.881 17.9351L93.6426 17.8583C95.495 17.8069 97.0368 16.4542 97.3987 14.7018C99.3963 16.3226 101.185 18.1265 102.751 20.0994ZM36.1873 40C36.1873 39.011 36.2354 38.0132 36.3308 37.0183L38.4636 37.363C39.0006 37.4499 39.5493 37.494 40.0942 37.494H41.1745C42.672 37.494 44.1594 37.9853 45.3624 38.8771L46.9992 40.0905C47.1393 40.1943 47.2304 40.3533 47.2491 40.5267L47.4709 42.5793C47.5068 42.9114 47.2765 43.2129 46.9468 43.2657C45.0857 43.5634 43.7053 45.2089 43.7358 47.0934L43.8523 54.3191C43.8655 55.1399 44.1358 55.9189 44.6338 56.5713L47.2311 59.9745C48.4566 61.5804 50.1138 62.7772 52.0234 63.4357C52.5524 63.6182 52.8786 64.1524 52.7992 64.7061L52.3332 67.9573C42.3187 61.7004 36.1873 51.1791 36.1873 40ZM53.0625 60.4226C51.7484 59.9696 50.6081 59.1458 49.7648 58.0408L47.1676 54.6378C47.0857 54.5305 47.0414 54.4024 47.0392 54.2676L46.9227 47.0421C46.9178 46.7323 47.1447 46.4618 47.4505 46.4129C49.4574 46.0918 50.8583 44.2574 50.6398 42.2367L50.418 40.1839C50.3041 39.1293 49.7498 38.1619 48.8975 37.53L47.2607 36.3167C45.5124 35.0206 43.3509 34.3066 41.1747 34.3066H40.0943C39.7194 34.3066 39.342 34.2763 38.9723 34.2166L36.7954 33.8647C38.3406 26.1316 42.7833 19.1433 49.4273 14.0528C54.1103 10.4647 59.7074 7.9957 65.654 6.88925C66.556 7.63969 67.2542 8.60224 67.69 9.70343L67.7804 9.93196C68.0067 10.5038 68.1573 11.1034 68.2277 11.7143L68.308 12.4096C68.4507 13.6462 68.2615 14.9025 67.7611 16.0424L66.8945 18.0166C66.3272 19.3085 65.3963 20.3889 64.2024 21.1406L63.1227 21.8204C62.0288 22.509 61.3893 23.739 61.4537 25.0301L61.5997 27.9468C61.607 28.0956 61.5378 28.1946 61.4784 28.2515C61.419 28.3082 61.3173 28.3724 61.1686 28.3589C61.0371 28.3465 60.9214 28.2695 60.8588 28.1533L59.5327 25.6907C59.0736 24.8378 58.2751 24.1992 57.342 23.9388L52.6551 22.6308C51.4234 22.287 50.1037 22.3892 48.9396 22.9183L47.8234 23.4257C45.4754 24.4931 44.192 27.092 44.772 29.6049C45.0014 30.6002 45.5047 31.5081 46.2268 32.2301L49.2719 35.2754C49.4435 35.4469 49.6081 35.6298 49.7614 35.8188L51.8491 38.3936C52.771 39.5307 54.1377 40.182 55.6011 40.1818C55.6061 40.1818 55.611 40.1818 55.6159 40.1818L61.3036 40.1645C61.3053 40.1645 61.3069 40.1645 61.3087 40.1645C61.8908 40.1645 62.4344 40.4765 62.728 40.9798C63.4108 42.1506 64.5627 42.985 65.8883 43.2692L68.0194 43.7257C68.488 43.8261 68.8883 44.1249 69.1178 44.5458L70.1469 46.4327C70.5595 47.1892 71.1837 47.7955 71.952 48.186L76.789 50.644C77.1868 50.8462 77.4167 51.2794 77.3614 51.7221C77.3294 51.9787 77.2051 52.2142 77.0115 52.3855L75.1742 54.0108C74.6563 54.469 74.254 55.0536 74.011 55.7012L73.6104 56.7693C73.4884 57.0947 73.2344 57.3576 72.9131 57.4908L70.9562 58.3023C69.2892 58.9935 68.212 60.6062 68.212 62.4108C68.212 62.6137 68.1621 62.8161 68.0679 62.996L63.0661 72.5379C60.3702 71.8461 57.7707 70.8724 55.3127 69.6336L55.9541 65.1587C56.2502 63.0942 55.0339 61.1025 53.0625 60.4226ZM73 73.7849C70.752 73.7849 68.5082 73.5968 66.3045 73.2249L70.8908 64.4756C71.2234 63.8411 71.3994 63.127 71.3994 62.4105C71.3994 61.8991 71.7047 61.4419 72.1771 61.2461L74.1342 60.4346C75.2676 59.9645 76.1645 59.0362 76.5949 57.8878L76.9954 56.8202C77.0561 56.6583 77.1567 56.5124 77.2861 56.3978L79.1233 54.7724C79.8983 54.0869 80.3957 53.1438 80.5241 52.1173C80.7458 50.3455 79.8252 48.6115 78.2332 47.8022L73.396 45.3442C73.2041 45.2467 73.0481 45.0952 72.945 44.9061L71.9159 43.0193C71.2414 41.7826 70.0645 40.9042 68.6873 40.6089L66.5563 40.1524C66.1053 40.0558 65.7135 39.7718 65.4811 39.3736C64.6182 37.8944 63.0204 36.9771 61.3087 36.9771C61.3037 36.9771 61.2988 36.9771 61.2939 36.9771L55.6064 36.9944C55.6046 36.9944 55.603 36.9944 55.6013 36.9944C55.1034 36.9944 54.6384 36.7729 54.3249 36.3861L52.2371 33.8113C52.0143 33.5364 51.7748 33.2706 51.5254 33.0214L48.4805 29.9764C48.1812 29.6773 47.9727 29.301 47.8776 28.8886C47.6373 27.8469 48.1692 26.7697 49.1423 26.3273L50.2583 25.8199C50.741 25.6006 51.2878 25.5583 51.7984 25.7007L56.4853 27.0088C56.5879 27.0375 56.6757 27.1077 56.7264 27.2016L58.0526 29.6644C58.621 30.72 59.6728 31.418 60.8665 31.5318C61.9023 31.6308 62.9284 31.2746 63.681 30.5554C64.4335 29.8362 64.8351 28.8273 64.7831 27.7876L64.6371 24.8709C64.6301 24.7288 64.7004 24.5935 64.8209 24.5176L65.9006 23.8378C67.6357 22.7453 68.9885 21.1755 69.8129 19.2979L70.6795 17.3237C71.4067 15.6671 71.6816 13.8416 71.4743 12.0441L71.3939 11.3488C71.2916 10.4614 71.0728 9.58997 70.7439 8.75905L70.6534 8.53036C70.3479 7.75873 69.9525 7.03491 69.4792 6.36877H69.4813C70.6505 6.26662 71.8266 6.21514 73 6.21514C80.6999 6.21514 88.039 8.36176 94.2802 12.4311L94.2921 13.9074C94.2955 14.3178 93.9643 14.6609 93.5541 14.6724L90.7927 14.7492C89.003 14.7989 87.4681 16.051 87.0599 17.794L86.3265 20.9245C85.9307 22.6145 86.7074 24.3949 88.2156 25.2539L91.4752 27.1103C91.9868 27.4016 92.5512 27.5465 93.1146 27.5465C93.7444 27.5465 94.3729 27.3653 94.9241 27.0054L97.2382 25.494C98.2026 24.8644 98.7767 23.7581 98.7367 22.6073C98.7361 22.5908 98.7345 22.5463 98.7815 22.5076C98.829 22.4687 98.8719 22.4791 98.8878 22.4824L102.462 23.3031C102.551 23.3235 102.641 23.3404 102.733 23.3535L105.259 23.7162C106.358 25.5452 107.266 27.4601 107.975 29.4392L105.507 28.8426C105.408 28.8188 105.308 28.7984 105.207 28.7823L102.512 28.3476C99.5849 27.8755 96.6083 28.8697 94.5524 31.0078L94.1468 31.4296C92.9442 32.6803 92.1307 34.241 91.7938 35.9428L90.7659 41.1374C90.4075 42.9482 90.6065 44.8003 91.3414 46.4937C92.6244 49.45 95.4102 51.5136 98.6118 51.8791L99.1112 51.9361C100.48 52.0926 101.89 51.9294 103.187 51.4647L104.887 50.8558C105.19 50.7473 105.53 50.8424 105.733 51.0932L105.956 51.3688C106.061 51.4975 106.12 51.6595 106.125 51.8246L106.206 54.5948C100.102 66.2654 87.116 73.7849 73 73.7849ZM108.396 49.3175L108.211 49.0878C107.447 48.1446 106.309 47.6247 105.14 47.6247C104.696 47.6247 104.247 47.6999 103.812 47.8555L102.113 48.4642C101.272 48.7653 100.359 48.8709 99.473 48.7696L98.9737 48.7125C96.9002 48.4759 95.0961 47.1395 94.2653 45.225C93.7893 44.1285 93.6604 42.9289 93.8924 41.7563L94.9203 36.5618C95.1385 35.4596 95.6653 34.4489 96.4443 33.6391L96.8499 33.2172C98.1814 31.8327 100.109 31.1887 102.005 31.4945L104.7 31.9293C104.719 31.9324 104.738 31.9361 104.757 31.9409L109.011 32.9689C109.544 35.2736 109.813 37.6344 109.813 40C109.813 43.1917 109.338 46.3093 108.396 49.3175Z" fill="black"/>
<mask id="path-10-outside-1_0_1" maskUnits="userSpaceOnUse" x="20" y="86" width="107" height="27" fill="black">
<rect fill="white" x="20" y="86" width="107" height="27"/>
<path d="M31.072 99.0441V107.138C30.9181 107.522 30.6805 107.938 30.3591 108.387C30.0378 108.826 29.6237 109.205 29.1168 109.523C28.6099 109.841 27.9966 110 27.277 110C26.6388 110 26.0573 109.785 25.5322 109.355C25.0072 108.915 24.5547 108.275 24.1745 107.433C23.7988 106.591 23.5092 105.562 23.3055 104.347C23.1018 103.122 23 101.723 23 100.152V98.8758C23 97.3046 23.0973 95.9065 23.2919 94.6814C23.4911 93.4562 23.7739 92.4228 24.1405 91.5812C24.5071 90.7395 24.9439 90.0989 25.4508 89.6593C25.9577 89.2198 26.5212 89 27.1412 89C28.0011 89 28.7072 89.2899 29.2593 89.8697C29.8115 90.4402 30.2324 91.2351 30.5221 92.2545C30.8162 93.2645 30.9973 94.4242 31.0652 95.7335H29.0896C29.0398 95.0414 28.9448 94.4382 28.8045 93.9238C28.6642 93.4095 28.4628 93.0073 28.2003 92.7174C27.9423 92.4275 27.6074 92.2826 27.1955 92.2826C26.8561 92.2826 26.5528 92.4275 26.2858 92.7174C26.0233 92.998 25.8015 93.4142 25.6205 93.9659C25.4395 94.5177 25.3014 95.2004 25.2064 96.014C25.1113 96.8277 25.0638 97.7722 25.0638 98.8477V100.152C25.0638 101.218 25.1136 102.163 25.2132 102.986C25.3127 103.8 25.4598 104.487 25.6544 105.048C25.8536 105.6 26.098 106.016 26.3876 106.297C26.6773 106.577 27.0145 106.717 27.3992 106.717C27.7205 106.717 27.9876 106.661 28.2003 106.549C28.4175 106.437 28.5918 106.301 28.723 106.142C28.8588 105.974 28.9629 105.815 29.0353 105.665V102.046H27.1752V99.0441H31.072Z"/>
<path d="M32.7149 89.2946H36.4012C37.157 89.2946 37.8065 89.5284 38.3496 89.996C38.8973 90.4636 39.3182 91.1556 39.6124 92.0721C39.9065 92.9886 40.0536 94.1156 40.0536 95.4529C40.0536 96.5471 39.9631 97.487 39.7821 98.2725C39.6056 99.0488 39.3544 99.6987 39.0285 100.222C38.7072 100.737 38.3293 101.148 37.8948 101.457L37.2498 102.158H34.0455L34.0319 98.8758H36.4148C36.7723 98.8758 37.0688 98.7448 37.3041 98.483C37.5395 98.2211 37.716 97.8564 37.8337 97.3888C37.9559 96.9212 38.017 96.3788 38.017 95.7615C38.017 95.1069 37.9581 94.5411 37.8405 94.0641C37.7228 93.5872 37.544 93.2224 37.3041 92.9699C37.0643 92.7174 36.7633 92.5912 36.4012 92.5912H34.7515V109.719H32.7149V89.2946ZM38.241 109.719L35.9871 100.615L38.1392 100.587L40.4202 109.523V109.719H38.241Z"/>
<path d="M49.7413 99.0301V99.998C49.7413 101.55 49.6395 102.944 49.4358 104.178C49.2322 105.413 48.9448 106.465 48.5737 107.335C48.2025 108.195 47.759 108.854 47.243 109.313C46.7316 109.771 46.1636 110 45.539 110C44.919 110 44.351 109.771 43.835 109.313C43.3236 108.854 42.8801 108.195 42.5044 107.335C42.1288 106.465 41.8368 105.413 41.6286 104.178C41.425 102.944 41.3232 101.55 41.3232 99.998V99.0301C41.3232 97.4683 41.425 96.0748 41.6286 94.8497C41.8323 93.6152 42.1197 92.5631 42.4908 91.6934C42.8665 90.8236 43.31 90.1597 43.8215 89.7014C44.3374 89.2432 44.9054 89.014 45.5255 89.014C46.15 89.014 46.718 89.2432 47.2295 89.7014C47.7454 90.1597 48.189 90.8236 48.5601 91.6934C48.9357 92.5631 49.2254 93.6152 49.4291 94.8497C49.6372 96.0748 49.7413 97.4683 49.7413 99.0301ZM47.6843 99.998V99.002C47.6843 97.9172 47.6368 96.9633 47.5418 96.1403C47.4467 95.3173 47.3064 94.6253 47.1208 94.0641C46.9353 93.503 46.709 93.0822 46.442 92.8016C46.1749 92.5117 45.8694 92.3667 45.5255 92.3667C45.1815 92.3667 44.876 92.5117 44.609 92.8016C44.3465 93.0822 44.1224 93.503 43.9369 94.0641C43.7558 94.6253 43.6178 95.3173 43.5227 96.1403C43.4277 96.9633 43.3802 97.9172 43.3802 99.002V99.998C43.3802 101.073 43.4277 102.027 43.5227 102.86C43.6178 103.683 43.7581 104.379 43.9437 104.95C44.1292 105.511 44.3555 105.937 44.6225 106.226C44.8896 106.516 45.1951 106.661 45.539 106.661C45.883 106.661 46.1885 106.516 46.4555 106.226C46.7226 105.937 46.9466 105.511 47.1276 104.95C47.3087 104.379 47.4467 103.683 47.5418 102.86C47.6368 102.027 47.6843 101.073 47.6843 99.998Z"/>
<path d="M56.666 89.2946H58.6959V102.79C58.6959 104.361 58.5329 105.684 58.2071 106.76C57.8857 107.835 57.4399 108.644 56.8697 109.186C56.3039 109.729 55.6522 110 54.9145 110C54.1767 110 53.5205 109.729 52.9457 109.186C52.3754 108.644 51.9274 107.835 51.6015 106.76C51.2802 105.684 51.1195 104.361 51.1195 102.79V89.2946H53.1561V102.79C53.1561 103.706 53.2263 104.454 53.3666 105.034C53.5069 105.614 53.7083 106.039 53.9708 106.311C54.2378 106.582 54.5524 106.717 54.9145 106.717C55.2856 106.717 55.6001 106.582 55.8581 106.311C56.1206 106.039 56.3198 105.614 56.4555 105.034C56.5958 104.454 56.666 103.706 56.666 102.79V89.2946Z"/>
<path d="M64.222 102.439H61.7033V99.1563H64.222C64.6112 99.1563 64.928 99.0254 65.1724 98.7635C65.4168 98.4923 65.5956 98.1182 65.7088 97.6413C65.8219 97.1643 65.8785 96.6266 65.8785 96.0281C65.8785 95.4202 65.8219 94.8544 65.7088 94.3307C65.5956 93.8069 65.4168 93.3861 65.1724 93.0681C64.928 92.7502 64.6112 92.5912 64.222 92.5912H62.4094V109.719H60.3727V89.2946H64.222C64.9959 89.2946 65.659 89.5845 66.2111 90.1643C66.7678 90.7348 67.1933 91.5251 67.4874 92.5351C67.7816 93.5451 67.9287 94.7001 67.9287 96C67.9287 97.3186 67.7816 98.4596 67.4874 99.4228C67.1933 100.386 66.7678 101.13 66.2111 101.653C65.659 102.177 64.9959 102.439 64.222 102.439Z"/>
<path d="M77.4535 99.0301V99.998C77.4535 101.55 77.3517 102.944 77.148 104.178C76.9443 105.413 76.6569 106.465 76.2858 107.335C75.9147 108.195 75.4711 108.854 74.9552 109.313C74.4438 109.771 73.8758 110 73.2512 110C72.6311 110 72.0631 109.771 71.5472 109.313C71.0358 108.854 70.5922 108.195 70.2166 107.335C69.8409 106.465 69.549 105.413 69.3408 104.178C69.1371 102.944 69.0353 101.55 69.0353 99.998V99.0301C69.0353 97.4683 69.1371 96.0748 69.3408 94.8497C69.5445 93.6152 69.8319 92.5631 70.203 91.6934C70.5786 90.8236 71.0222 90.1597 71.5336 89.7014C72.0496 89.2432 72.6176 89.014 73.2376 89.014C73.8622 89.014 74.4302 89.2432 74.9416 89.7014C75.4576 90.1597 75.9011 90.8236 76.2722 91.6934C76.6479 92.5631 76.9375 93.6152 77.1412 94.8497C77.3494 96.0748 77.4535 97.4683 77.4535 99.0301ZM75.3965 99.998V99.002C75.3965 97.9172 75.3489 96.9633 75.2539 96.1403C75.1589 95.3173 75.0186 94.6253 74.833 94.0641C74.6474 93.503 74.4211 93.0822 74.1541 92.8016C73.8871 92.5117 73.5816 92.3667 73.2376 92.3667C72.8936 92.3667 72.5881 92.5117 72.3211 92.8016C72.0586 93.0822 71.8346 93.503 71.649 94.0641C71.468 94.6253 71.3299 95.3173 71.2349 96.1403C71.1399 96.9633 71.0923 97.9172 71.0923 99.002V99.998C71.0923 101.073 71.1399 102.027 71.2349 102.86C71.3299 103.683 71.4702 104.379 71.6558 104.95C71.8414 105.511 72.0677 105.937 72.3347 106.226C72.6017 106.516 72.9072 106.661 73.2512 106.661C73.5952 106.661 73.9007 106.516 74.1677 106.226C74.4347 105.937 74.6587 105.511 74.8398 104.95C75.0208 104.379 75.1589 103.683 75.2539 102.86C75.3489 102.027 75.3965 101.073 75.3965 99.998Z"/>
<path d="M79.85 89.2946H81.5743L84.1134 104.291L86.6524 89.2946H88.3768L84.8058 109.719H83.4209L79.85 89.2946ZM78.9199 89.2946H80.6375L80.9498 103.912V109.719H78.9199V89.2946ZM87.5893 89.2946H89.3136V109.719H87.277V103.912L87.5893 89.2946Z"/>
<path d="M95.2403 92.7876L92.5519 109.719H90.3863L94.0591 89.2946H95.4372L95.2403 92.7876ZM97.4739 109.719L94.7787 92.7876L94.5614 89.2946H95.9532L99.6463 109.719H97.4739ZM97.3517 102.116V105.413H92.131V102.116H97.3517Z"/>
<path d="M108.608 89.2946V109.719H106.571L102.599 96.0281V109.719H100.563V89.2946H102.599L106.578 103V89.2946H108.608Z"/>
<path d="M112.545 89.2946V109.719H110.515V89.2946H112.545Z"/>
<path d="M118.594 92.7876L115.906 109.719H113.74L117.413 89.2946H118.791L118.594 92.7876ZM120.828 109.719L118.132 92.7876L117.915 89.2946H119.307L123 109.719H120.828ZM120.705 102.116V105.413H115.485V102.116H120.705Z"/>
</mask>
<path d="M31.072 99.0441V107.138C30.9181 107.522 30.6805 107.938 30.3591 108.387C30.0378 108.826 29.6237 109.205 29.1168 109.523C28.6099 109.841 27.9966 110 27.277 110C26.6388 110 26.0573 109.785 25.5322 109.355C25.0072 108.915 24.5547 108.275 24.1745 107.433C23.7988 106.591 23.5092 105.562 23.3055 104.347C23.1018 103.122 23 101.723 23 100.152V98.8758C23 97.3046 23.0973 95.9065 23.2919 94.6814C23.4911 93.4562 23.7739 92.4228 24.1405 91.5812C24.5071 90.7395 24.9439 90.0989 25.4508 89.6593C25.9577 89.2198 26.5212 89 27.1412 89C28.0011 89 28.7072 89.2899 29.2593 89.8697C29.8115 90.4402 30.2324 91.2351 30.5221 92.2545C30.8162 93.2645 30.9973 94.4242 31.0652 95.7335H29.0896C29.0398 95.0414 28.9448 94.4382 28.8045 93.9238C28.6642 93.4095 28.4628 93.0073 28.2003 92.7174C27.9423 92.4275 27.6074 92.2826 27.1955 92.2826C26.8561 92.2826 26.5528 92.4275 26.2858 92.7174C26.0233 92.998 25.8015 93.4142 25.6205 93.9659C25.4395 94.5177 25.3014 95.2004 25.2064 96.014C25.1113 96.8277 25.0638 97.7722 25.0638 98.8477V100.152C25.0638 101.218 25.1136 102.163 25.2132 102.986C25.3127 103.8 25.4598 104.487 25.6544 105.048C25.8536 105.6 26.098 106.016 26.3876 106.297C26.6773 106.577 27.0145 106.717 27.3992 106.717C27.7205 106.717 27.9876 106.661 28.2003 106.549C28.4175 106.437 28.5918 106.301 28.723 106.142C28.8588 105.974 28.9629 105.815 29.0353 105.665V102.046H27.1752V99.0441H31.072Z" fill="#7AC944"/>
<path d="M32.7149 89.2946H36.4012C37.157 89.2946 37.8065 89.5284 38.3496 89.996C38.8973 90.4636 39.3182 91.1556 39.6124 92.0721C39.9065 92.9886 40.0536 94.1156 40.0536 95.4529C40.0536 96.5471 39.9631 97.487 39.7821 98.2725C39.6056 99.0488 39.3544 99.6987 39.0285 100.222C38.7072 100.737 38.3293 101.148 37.8948 101.457L37.2498 102.158H34.0455L34.0319 98.8758H36.4148C36.7723 98.8758 37.0688 98.7448 37.3041 98.483C37.5395 98.2211 37.716 97.8564 37.8337 97.3888C37.9559 96.9212 38.017 96.3788 38.017 95.7615C38.017 95.1069 37.9581 94.5411 37.8405 94.0641C37.7228 93.5872 37.544 93.2224 37.3041 92.9699C37.0643 92.7174 36.7633 92.5912 36.4012 92.5912H34.7515V109.719H32.7149V89.2946ZM38.241 109.719L35.9871 100.615L38.1392 100.587L40.4202 109.523V109.719H38.241Z" fill="#7AC944"/>
<path d="M49.7413 99.0301V99.998C49.7413 101.55 49.6395 102.944 49.4358 104.178C49.2322 105.413 48.9448 106.465 48.5737 107.335C48.2025 108.195 47.759 108.854 47.243 109.313C46.7316 109.771 46.1636 110 45.539 110C44.919 110 44.351 109.771 43.835 109.313C43.3236 108.854 42.8801 108.195 42.5044 107.335C42.1288 106.465 41.8368 105.413 41.6286 104.178C41.425 102.944 41.3232 101.55 41.3232 99.998V99.0301C41.3232 97.4683 41.425 96.0748 41.6286 94.8497C41.8323 93.6152 42.1197 92.5631 42.4908 91.6934C42.8665 90.8236 43.31 90.1597 43.8215 89.7014C44.3374 89.2432 44.9054 89.014 45.5255 89.014C46.15 89.014 46.718 89.2432 47.2295 89.7014C47.7454 90.1597 48.189 90.8236 48.5601 91.6934C48.9357 92.5631 49.2254 93.6152 49.4291 94.8497C49.6372 96.0748 49.7413 97.4683 49.7413 99.0301ZM47.6843 99.998V99.002C47.6843 97.9172 47.6368 96.9633 47.5418 96.1403C47.4467 95.3173 47.3064 94.6253 47.1208 94.0641C46.9353 93.503 46.709 93.0822 46.442 92.8016C46.1749 92.5117 45.8694 92.3667 45.5255 92.3667C45.1815 92.3667 44.876 92.5117 44.609 92.8016C44.3465 93.0822 44.1224 93.503 43.9369 94.0641C43.7558 94.6253 43.6178 95.3173 43.5227 96.1403C43.4277 96.9633 43.3802 97.9172 43.3802 99.002V99.998C43.3802 101.073 43.4277 102.027 43.5227 102.86C43.6178 103.683 43.7581 104.379 43.9437 104.95C44.1292 105.511 44.3555 105.937 44.6225 106.226C44.8896 106.516 45.1951 106.661 45.539 106.661C45.883 106.661 46.1885 106.516 46.4555 106.226C46.7226 105.937 46.9466 105.511 47.1276 104.95C47.3087 104.379 47.4467 103.683 47.5418 102.86C47.6368 102.027 47.6843 101.073 47.6843 99.998Z" fill="#7AC944"/>
<path d="M56.666 89.2946H58.6959V102.79C58.6959 104.361 58.5329 105.684 58.2071 106.76C57.8857 107.835 57.4399 108.644 56.8697 109.186C56.3039 109.729 55.6522 110 54.9145 110C54.1767 110 53.5205 109.729 52.9457 109.186C52.3754 108.644 51.9274 107.835 51.6015 106.76C51.2802 105.684 51.1195 104.361 51.1195 102.79V89.2946H53.1561V102.79C53.1561 103.706 53.2263 104.454 53.3666 105.034C53.5069 105.614 53.7083 106.039 53.9708 106.311C54.2378 106.582 54.5524 106.717 54.9145 106.717C55.2856 106.717 55.6001 106.582 55.8581 106.311C56.1206 106.039 56.3198 105.614 56.4555 105.034C56.5958 104.454 56.666 103.706 56.666 102.79V89.2946Z" fill="#7AC944"/>
<path d="M64.222 102.439H61.7033V99.1563H64.222C64.6112 99.1563 64.928 99.0254 65.1724 98.7635C65.4168 98.4923 65.5956 98.1182 65.7088 97.6413C65.8219 97.1643 65.8785 96.6266 65.8785 96.0281C65.8785 95.4202 65.8219 94.8544 65.7088 94.3307C65.5956 93.8069 65.4168 93.3861 65.1724 93.0681C64.928 92.7502 64.6112 92.5912 64.222 92.5912H62.4094V109.719H60.3727V89.2946H64.222C64.9959 89.2946 65.659 89.5845 66.2111 90.1643C66.7678 90.7348 67.1933 91.5251 67.4874 92.5351C67.7816 93.5451 67.9287 94.7001 67.9287 96C67.9287 97.3186 67.7816 98.4596 67.4874 99.4228C67.1933 100.386 66.7678 101.13 66.2111 101.653C65.659 102.177 64.9959 102.439 64.222 102.439Z" fill="#7AC944"/>
<path d="M77.4535 99.0301V99.998C77.4535 101.55 77.3517 102.944 77.148 104.178C76.9443 105.413 76.6569 106.465 76.2858 107.335C75.9147 108.195 75.4711 108.854 74.9552 109.313C74.4438 109.771 73.8758 110 73.2512 110C72.6311 110 72.0631 109.771 71.5472 109.313C71.0358 108.854 70.5922 108.195 70.2166 107.335C69.8409 106.465 69.549 105.413 69.3408 104.178C69.1371 102.944 69.0353 101.55 69.0353 99.998V99.0301C69.0353 97.4683 69.1371 96.0748 69.3408 94.8497C69.5445 93.6152 69.8319 92.5631 70.203 91.6934C70.5786 90.8236 71.0222 90.1597 71.5336 89.7014C72.0496 89.2432 72.6176 89.014 73.2376 89.014C73.8622 89.014 74.4302 89.2432 74.9416 89.7014C75.4576 90.1597 75.9011 90.8236 76.2722 91.6934C76.6479 92.5631 76.9375 93.6152 77.1412 94.8497C77.3494 96.0748 77.4535 97.4683 77.4535 99.0301ZM75.3965 99.998V99.002C75.3965 97.9172 75.3489 96.9633 75.2539 96.1403C75.1589 95.3173 75.0186 94.6253 74.833 94.0641C74.6474 93.503 74.4211 93.0822 74.1541 92.8016C73.8871 92.5117 73.5816 92.3667 73.2376 92.3667C72.8936 92.3667 72.5881 92.5117 72.3211 92.8016C72.0586 93.0822 71.8346 93.503 71.649 94.0641C71.468 94.6253 71.3299 95.3173 71.2349 96.1403C71.1399 96.9633 71.0923 97.9172 71.0923 99.002V99.998C71.0923 101.073 71.1399 102.027 71.2349 102.86C71.3299 103.683 71.4702 104.379 71.6558 104.95C71.8414 105.511 72.0677 105.937 72.3347 106.226C72.6017 106.516 72.9072 106.661 73.2512 106.661C73.5952 106.661 73.9007 106.516 74.1677 106.226C74.4347 105.937 74.6587 105.511 74.8398 104.95C75.0208 104.379 75.1589 103.683 75.2539 102.86C75.3489 102.027 75.3965 101.073 75.3965 99.998Z" fill="#7AC944"/>
<path d="M79.85 89.2946H81.5743L84.1134 104.291L86.6524 89.2946H88.3768L84.8058 109.719H83.4209L79.85 89.2946ZM78.9199 89.2946H80.6375L80.9498 103.912V109.719H78.9199V89.2946ZM87.5893 89.2946H89.3136V109.719H87.277V103.912L87.5893 89.2946Z" fill="#7AC944"/>
<path d="M95.2403 92.7876L92.5519 109.719H90.3863L94.0591 89.2946H95.4372L95.2403 92.7876ZM97.4739 109.719L94.7787 92.7876L94.5614 89.2946H95.9532L99.6463 109.719H97.4739ZM97.3517 102.116V105.413H92.131V102.116H97.3517Z" fill="#7AC944"/>
<path d="M108.608 89.2946V109.719H106.571L102.599 96.0281V109.719H100.563V89.2946H102.599L106.578 103V89.2946H108.608Z" fill="#7AC944"/>
<path d="M112.545 89.2946V109.719H110.515V89.2946H112.545Z" fill="#7AC944"/>
<path d="M118.594 92.7876L115.906 109.719H113.74L117.413 89.2946H118.791L118.594 92.7876ZM120.828 109.719L118.132 92.7876L117.915 89.2946H119.307L123 109.719H120.828ZM120.705 102.116V105.413H115.485V102.116H120.705Z" fill="#7AC944"/>
<path d="M31.072 99.0441V107.138C30.9181 107.522 30.6805 107.938 30.3591 108.387C30.0378 108.826 29.6237 109.205 29.1168 109.523C28.6099 109.841 27.9966 110 27.277 110C26.6388 110 26.0573 109.785 25.5322 109.355C25.0072 108.915 24.5547 108.275 24.1745 107.433C23.7988 106.591 23.5092 105.562 23.3055 104.347C23.1018 103.122 23 101.723 23 100.152V98.8758C23 97.3046 23.0973 95.9065 23.2919 94.6814C23.4911 93.4562 23.7739 92.4228 24.1405 91.5812C24.5071 90.7395 24.9439 90.0989 25.4508 89.6593C25.9577 89.2198 26.5212 89 27.1412 89C28.0011 89 28.7072 89.2899 29.2593 89.8697C29.8115 90.4402 30.2324 91.2351 30.5221 92.2545C30.8162 93.2645 30.9973 94.4242 31.0652 95.7335H29.0896C29.0398 95.0414 28.9448 94.4382 28.8045 93.9238C28.6642 93.4095 28.4628 93.0073 28.2003 92.7174C27.9423 92.4275 27.6074 92.2826 27.1955 92.2826C26.8561 92.2826 26.5528 92.4275 26.2858 92.7174C26.0233 92.998 25.8015 93.4142 25.6205 93.9659C25.4395 94.5177 25.3014 95.2004 25.2064 96.014C25.1113 96.8277 25.0638 97.7722 25.0638 98.8477V100.152C25.0638 101.218 25.1136 102.163 25.2132 102.986C25.3127 103.8 25.4598 104.487 25.6544 105.048C25.8536 105.6 26.098 106.016 26.3876 106.297C26.6773 106.577 27.0145 106.717 27.3992 106.717C27.7205 106.717 27.9876 106.661 28.2003 106.549C28.4175 106.437 28.5918 106.301 28.723 106.142C28.8588 105.974 28.9629 105.815 29.0353 105.665V102.046H27.1752V99.0441H31.072Z" stroke="black" stroke-width="6" mask="url(#path-10-outside-1_0_1)"/>
<path d="M32.7149 89.2946H36.4012C37.157 89.2946 37.8065 89.5284 38.3496 89.996C38.8973 90.4636 39.3182 91.1556 39.6124 92.0721C39.9065 92.9886 40.0536 94.1156 40.0536 95.4529C40.0536 96.5471 39.9631 97.487 39.7821 98.2725C39.6056 99.0488 39.3544 99.6987 39.0285 100.222C38.7072 100.737 38.3293 101.148 37.8948 101.457L37.2498 102.158H34.0455L34.0319 98.8758H36.4148C36.7723 98.8758 37.0688 98.7448 37.3041 98.483C37.5395 98.2211 37.716 97.8564 37.8337 97.3888C37.9559 96.9212 38.017 96.3788 38.017 95.7615C38.017 95.1069 37.9581 94.5411 37.8405 94.0641C37.7228 93.5872 37.544 93.2224 37.3041 92.9699C37.0643 92.7174 36.7633 92.5912 36.4012 92.5912H34.7515V109.719H32.7149V89.2946ZM38.241 109.719L35.9871 100.615L38.1392 100.587L40.4202 109.523V109.719H38.241Z" stroke="black" stroke-width="6" mask="url(#path-10-outside-1_0_1)"/>
<path d="M49.7413 99.0301V99.998C49.7413 101.55 49.6395 102.944 49.4358 104.178C49.2322 105.413 48.9448 106.465 48.5737 107.335C48.2025 108.195 47.759 108.854 47.243 109.313C46.7316 109.771 46.1636 110 45.539 110C44.919 110 44.351 109.771 43.835 109.313C43.3236 108.854 42.8801 108.195 42.5044 107.335C42.1288 106.465 41.8368 105.413 41.6286 104.178C41.425 102.944 41.3232 101.55 41.3232 99.998V99.0301C41.3232 97.4683 41.425 96.0748 41.6286 94.8497C41.8323 93.6152 42.1197 92.5631 42.4908 91.6934C42.8665 90.8236 43.31 90.1597 43.8215 89.7014C44.3374 89.2432 44.9054 89.014 45.5255 89.014C46.15 89.014 46.718 89.2432 47.2295 89.7014C47.7454 90.1597 48.189 90.8236 48.5601 91.6934C48.9357 92.5631 49.2254 93.6152 49.4291 94.8497C49.6372 96.0748 49.7413 97.4683 49.7413 99.0301ZM47.6843 99.998V99.002C47.6843 97.9172 47.6368 96.9633 47.5418 96.1403C47.4467 95.3173 47.3064 94.6253 47.1208 94.0641C46.9353 93.503 46.709 93.0822 46.442 92.8016C46.1749 92.5117 45.8694 92.3667 45.5255 92.3667C45.1815 92.3667 44.876 92.5117 44.609 92.8016C44.3465 93.0822 44.1224 93.503 43.9369 94.0641C43.7558 94.6253 43.6178 95.3173 43.5227 96.1403C43.4277 96.9633 43.3802 97.9172 43.3802 99.002V99.998C43.3802 101.073 43.4277 102.027 43.5227 102.86C43.6178 103.683 43.7581 104.379 43.9437 104.95C44.1292 105.511 44.3555 105.937 44.6225 106.226C44.8896 106.516 45.1951 106.661 45.539 106.661C45.883 106.661 46.1885 106.516 46.4555 106.226C46.7226 105.937 46.9466 105.511 47.1276 104.95C47.3087 104.379 47.4467 103.683 47.5418 102.86C47.6368 102.027 47.6843 101.073 47.6843 99.998Z" stroke="black" stroke-width="6" mask="url(#path-10-outside-1_0_1)"/>
<path d="M56.666 89.2946H58.6959V102.79C58.6959 104.361 58.5329 105.684 58.2071 106.76C57.8857 107.835 57.4399 108.644 56.8697 109.186C56.3039 109.729 55.6522 110 54.9145 110C54.1767 110 53.5205 109.729 52.9457 109.186C52.3754 108.644 51.9274 107.835 51.6015 106.76C51.2802 105.684 51.1195 104.361 51.1195 102.79V89.2946H53.1561V102.79C53.1561 103.706 53.2263 104.454 53.3666 105.034C53.5069 105.614 53.7083 106.039 53.9708 106.311C54.2378 106.582 54.5524 106.717 54.9145 106.717C55.2856 106.717 55.6001 106.582 55.8581 106.311C56.1206 106.039 56.3198 105.614 56.4555 105.034C56.5958 104.454 56.666 103.706 56.666 102.79V89.2946Z" stroke="black" stroke-width="6" mask="url(#path-10-outside-1_0_1)"/>
<path d="M64.222 102.439H61.7033V99.1563H64.222C64.6112 99.1563 64.928 99.0254 65.1724 98.7635C65.4168 98.4923 65.5956 98.1182 65.7088 97.6413C65.8219 97.1643 65.8785 96.6266 65.8785 96.0281C65.8785 95.4202 65.8219 94.8544 65.7088 94.3307C65.5956 93.8069 65.4168 93.3861 65.1724 93.0681C64.928 92.7502 64.6112 92.5912 64.222 92.5912H62.4094V109.719H60.3727V89.2946H64.222C64.9959 89.2946 65.659 89.5845 66.2111 90.1643C66.7678 90.7348 67.1933 91.5251 67.4874 92.5351C67.7816 93.5451 67.9287 94.7001 67.9287 96C67.9287 97.3186 67.7816 98.4596 67.4874 99.4228C67.1933 100.386 66.7678 101.13 66.2111 101.653C65.659 102.177 64.9959 102.439 64.222 102.439Z" stroke="black" stroke-width="6" mask="url(#path-10-outside-1_0_1)"/>
<path d="M77.4535 99.0301V99.998C77.4535 101.55 77.3517 102.944 77.148 104.178C76.9443 105.413 76.6569 106.465 76.2858 107.335C75.9147 108.195 75.4711 108.854 74.9552 109.313C74.4438 109.771 73.8758 110 73.2512 110C72.6311 110 72.0631 109.771 71.5472 109.313C71.0358 108.854 70.5922 108.195 70.2166 107.335C69.8409 106.465 69.549 105.413 69.3408 104.178C69.1371 102.944 69.0353 101.55 69.0353 99.998V99.0301C69.0353 97.4683 69.1371 96.0748 69.3408 94.8497C69.5445 93.6152 69.8319 92.5631 70.203 91.6934C70.5786 90.8236 71.0222 90.1597 71.5336 89.7014C72.0496 89.2432 72.6176 89.014 73.2376 89.014C73.8622 89.014 74.4302 89.2432 74.9416 89.7014C75.4576 90.1597 75.9011 90.8236 76.2722 91.6934C76.6479 92.5631 76.9375 93.6152 77.1412 94.8497C77.3494 96.0748 77.4535 97.4683 77.4535 99.0301ZM75.3965 99.998V99.002C75.3965 97.9172 75.3489 96.9633 75.2539 96.1403C75.1589 95.3173 75.0186 94.6253 74.833 94.0641C74.6474 93.503 74.4211 93.0822 74.1541 92.8016C73.8871 92.5117 73.5816 92.3667 73.2376 92.3667C72.8936 92.3667 72.5881 92.5117 72.3211 92.8016C72.0586 93.0822 71.8346 93.503 71.649 94.0641C71.468 94.6253 71.3299 95.3173 71.2349 96.1403C71.1399 96.9633 71.0923 97.9172 71.0923 99.002V99.998C71.0923 101.073 71.1399 102.027 71.2349 102.86C71.3299 103.683 71.4702 104.379 71.6558 104.95C71.8414 105.511 72.0677 105.937 72.3347 106.226C72.6017 106.516 72.9072 106.661 73.2512 106.661C73.5952 106.661 73.9007 106.516 74.1677 106.226C74.4347 105.937 74.6587 105.511 74.8398 104.95C75.0208 104.379 75.1589 103.683 75.2539 102.86C75.3489 102.027 75.3965 101.073 75.3965 99.998Z" stroke="black" stroke-width="6" mask="url(#path-10-outside-1_0_1)"/>
<path d="M79.85 89.2946H81.5743L84.1134 104.291L86.6524 89.2946H88.3768L84.8058 109.719H83.4209L79.85 89.2946ZM78.9199 89.2946H80.6375L80.9498 103.912V109.719H78.9199V89.2946ZM87.5893 89.2946H89.3136V109.719H87.277V103.912L87.5893 89.2946Z" stroke="black" stroke-width="6" mask="url(#path-10-outside-1_0_1)"/>
<path d="M95.2403 92.7876L92.5519 109.719H90.3863L94.0591 89.2946H95.4372L95.2403 92.7876ZM97.4739 109.719L94.7787 92.7876L94.5614 89.2946H95.9532L99.6463 109.719H97.4739ZM97.3517 102.116V105.413H92.131V102.116H97.3517Z" stroke="black" stroke-width="6" mask="url(#path-10-outside-1_0_1)"/>
<path d="M108.608 89.2946V109.719H106.571L102.599 96.0281V109.719H100.563V89.2946H102.599L106.578 103V89.2946H108.608Z" stroke="black" stroke-width="6" mask="url(#path-10-outside-1_0_1)"/>
<path d="M112.545 89.2946V109.719H110.515V89.2946H112.545Z" stroke="black" stroke-width="6" mask="url(#path-10-outside-1_0_1)"/>
<path d="M118.594 92.7876L115.906 109.719H113.74L117.413 89.2946H118.791L118.594 92.7876ZM120.828 109.719L118.132 92.7876L117.915 89.2946H119.307L123 109.719H120.828ZM120.705 102.116V105.413H115.485V102.116H120.705Z" stroke="black" stroke-width="6" mask="url(#path-10-outside-1_0_1)"/>
</svg>
